         <svg xmlns="http://www.w3.org/2000/svg" width="154" height="233" viewBox="0 0 154 233"
                            fill="none">
                            <g clip-path="url(#clip0_24_2)">
                                <path
                                    d="M150.91 107.76C148.26 100.39 141.45 94.5 137.56 91.89V75.58C137.56 70.39 133.48 66.16 128.48 66.16H126.11C125.37 63.24 124.59 60.28 123.77 57.3C122.61 48.62 122.02 39.36 120.3 29.81C119.6 25.92 117.96 21.59 115.18 17.47C119.67 17.1 123.2 13.35 123.2 8.77C123.18 3.94 119.26 0.02 114.43 0.02C109.87 0.02 106.13 3.52 105.73 7.97C98.92 3.26 89.5 0 76.88 0C64.26 0 54.83 3.26 48.03 7.97C47.62 3.51 43.88 0.02 39.32 0.02C34.49 0.02 30.57 3.94 30.57 8.77C30.57 13.6 34.1 17.1 38.59 17.47C35.81 21.59 34.17 25.92 33.47 29.81C31.75 39.36 31.15 48.62 30 57.3C29.18 60.29 28.4 63.24 27.65 66.16H25.28C20.27 66.16 16.2 70.39 16.2 75.58V91.48C12.47 93.83 5.00999 99.97 2.20999 107.76C0.989988 110.45 0.209988 113.63 0.0399884 117.06C-0.470012 127.23 4.09999 136.27 11.84 136.27C13.41 136.27 14.81 136.07 16.05 135.7C13.5 167.33 15.59 188.36 15.82 193.01C16.94 215.27 18.74 217.75 18.15 224.7C17.57 231.65 18.73 232.23 24.52 232.23H35.52C38.99 232.23 41.22 231.43 43.04 224.7C46.1 213.42 42.46 215.3 46.51 206.47C48.46 202.23 48.25 201.12 52.88 201.12H100.88C105.51 201.12 105.3 202.23 107.25 206.47C111.3 215.3 107.66 213.43 110.72 224.7C112.54 231.43 114.77 232.23 118.24 232.23H129.24C135.03 232.23 136.18 231.65 135.61 224.7C135.03 217.76 136.83 215.28 137.94 193.01C138.17 188.36 140.25 167.41 137.72 135.87C138.8 136.13 139.98 136.26 141.28 136.26C149.01 136.26 153.58 127.22 153.08 117.05C152.91 113.62 152.13 110.45 150.91 107.75"
                                    fill="#231815" />
                                <path
                                    d="M53.98 46.09C53.98 55.8 64.18 63.67 76.77 63.67C89.36 63.67 99.56 55.8 99.56 46.09C99.56 36.38 89.36 28.51 76.77 28.51C64.18 28.51 53.98 36.38 53.98 46.09ZM95.98 45.94C96.51 45.85 96.79 45.76 96.94 46.08C97.06 46.33 96.89 46.66 95.69 47.52C94.39 48.44 85.25 54.18 76.77 54.18C68.29 54.18 59.15 48.45 57.85 47.52C56.64 46.66 56.48 46.32 56.6 46.08C56.76 45.76 57.04 45.85 57.56 45.94C58.57 46.11 66.74 43.63 76.89 43.63C87.04 43.63 94.97 46.11 95.98 45.94ZM70.86 33.25C71.73 31.81 74.33 30.68 76.77 30.68C79.21 30.68 81.75 31.8 82.65 33.22C82.88 33.59 82.99 33.97 82.99 34.34C82.99 34.63 82.92 34.91 82.79 35.19C81.69 37.44 78.93 39.33 76.77 39.33C74.84 39.33 72.15 37.91 70.75 35.19C70.42 34.56 70.46 33.89 70.86 33.23"
                                    fill="white" />
                                <path
                                    d="M56.36 32.25C61.03 32.25 64.82 28.46 64.82 23.8C64.82 19.14 61.03 15.34 56.36 15.34C51.69 15.34 47.91 19.12 47.91 23.8C47.91 28.48 51.69 32.25 56.36 32.25ZM56.36 20.5C57.05 20.5 57.59 21.75 57.59 23.35C57.59 24.95 57.05 26.2 56.36 26.2C55.67 26.2 55.13 24.95 55.13 23.35C55.13 21.75 55.67 20.5 56.36 20.5Z"
                                    fill="white" />
                                <path
                                    d="M97.17 32.25C101.84 32.25 105.63 28.46 105.63 23.8C105.63 19.14 101.84 15.34 97.17 15.34C92.5 15.34 88.71 19.12 88.71 23.8C88.71 28.48 92.5 32.25 97.17 32.25ZM97.17 20.5C97.86 20.5 98.39 21.75 98.39 23.35C98.39 24.95 97.86 26.2 97.17 26.2C96.48 26.2 95.94 24.95 95.94 23.35C95.94 21.75 96.48 20.5 97.17 20.5Z"
                                    fill="white" />
                                <path
                                    d="M50.6301 9.55999C51.2601 8.93999 53.1301 7.83999 54.2501 7.72999C55.8401 7.56999 57.4401 7.95999 58.7601 8.79999C59.7201 9.40999 59.6001 9.14999 59.1101 8.33999C58.0201 6.63999 55.5901 5.47999 53.7801 5.75999C51.9701 6.04999 50.4901 7.68999 49.9101 9.24999C49.6801 9.87999 49.9801 10.18 50.6201 9.56999"
                                    fill="white" />
                                <path
                                    d="M108.93 9.98001L112.67 13.71C112.67 13.71 112.75 13.76 112.79 13.77C114.09 13.88 116.53 13.8 118.16 12.02C119.42 10.65 119.84 8.78001 119.29 7.02001C118.76 5.30001 117.41 4.05001 115.68 3.66001C113.63 3.20001 111.68 3.70001 110.32 5.04001C109.04 6.31001 108.51 8.12001 108.89 9.88001C108.89 9.92001 108.92 9.95001 108.94 9.97001"
                                    fill="white" />
                                <path
                                    d="M40.62 13.77C40.62 13.77 40.71 13.74 40.74 13.71L44.47 9.97999C44.47 9.97999 44.51 9.92999 44.52 9.88999C44.9 8.12999 44.37 6.31999 43.09 5.04999C41.74 3.70999 39.78 3.20999 37.73 3.66999C36 4.05999 34.65 5.31999 34.12 7.02999C33.57 8.78999 33.99 10.66 35.24 12.03C36.88 13.81 39.31 13.89 40.61 13.78"
                                    fill="white" />
                                <path
                                    d="M94.4 9.08001C95.72 8.24001 97.33 7.86001 98.91 8.01001C100.03 8.12001 101.9 9.22001 102.53 9.84001C103.17 10.46 103.47 10.16 103.24 9.52001C102.66 7.97001 101.18 6.32001 99.37 6.03001C97.57 5.75001 95.14 6.91001 94.04 8.61001C93.55 9.42001 93.43 9.68001 94.39 9.07001"
                                    fill="white" />
                                <path
                                    d="M128.47 70.14H25.2899C22.4799 70.14 20.1899 72.58 20.1899 75.58V103C23.1499 106.49 24.9099 112.07 24.6099 118.26C24.6099 124.95 23.3699 130.23 20.1899 133.3V161.07C20.1899 164.07 22.4799 166.51 25.2899 166.51H128.47C131.28 166.51 133.57 164.07 133.57 161.07V133.87C129.92 130.91 128.51 125.38 128.51 118.26C128.18 111.63 130.23 105.71 133.57 102.29V75.58C133.57 72.58 131.28 70.14 128.47 70.14ZM77.8099 79.03H91.9999V93.22H77.8099V79.03ZM77.8099 95.59H91.9999V109.78H77.8099V95.59ZM61.2499 79.03H75.4399V93.22H61.2499V79.03ZM61.2499 95.59H75.4399V109.78H61.2499V95.59ZM61.2499 112.15H75.4399V126.34H61.2499V112.15ZM44.6899 79.13H58.8799V93.32H44.6899V79.13ZM44.6899 95.59H58.8799V109.78H44.6899V95.59ZM44.6899 112.15H58.8799V126.34H44.6899V112.15ZM28.1299 79.13H42.3199V93.32H28.1299V79.13ZM28.1299 95.69H42.3199V109.88H28.1299V95.69ZM28.1299 112.15H42.3199V126.34H28.1299V112.15ZM46.6399 155.25C46.0799 156.37 45.3199 157.3 44.3599 158.04C43.3999 158.78 42.2899 159.33 41.0299 159.69C39.7699 160.05 38.4299 160.23 37.0299 160.23C35.2699 160.23 33.6399 159.96 32.1299 159.43C30.6199 158.89 28.2999 157.11 28.2999 157.11C28.0899 156.95 28.0699 156.66 28.2399 156.47L31.8499 152.5C32.0199 152.31 32.3099 152.3 32.4999 152.5C32.4999 152.5 33.5599 153.61 34.4899 154.05C35.4199 154.5 36.3799 154.72 37.3799 154.72C37.8599 154.72 38.3599 154.66 38.8499 154.55C39.3499 154.44 39.7899 154.26 40.1899 154.03C40.5799 153.8 40.8999 153.51 41.1499 153.15C41.3899 152.79 41.5099 152.37 41.5099 151.89C41.5099 151.07 41.1999 150.43 40.5699 149.96C39.9499 149.49 39.1599 149.09 38.2199 148.75C37.2799 148.42 36.2599 148.09 35.1599 147.76C34.0599 147.43 33.0399 146.98 32.0999 146.42C31.1599 145.86 30.3699 145.12 29.7499 144.2C29.1199 143.28 28.8099 142.07 28.8099 140.57C28.8099 139.07 29.0999 137.84 29.6699 136.74C30.2399 135.64 31.0099 134.73 31.9599 133.99C32.9199 133.25 34.0199 132.7 35.2699 132.33C36.5199 131.96 37.8099 131.78 39.1399 131.78C40.6699 131.78 42.1499 132 43.5799 132.43C45.0099 132.86 47.0599 134.34 47.0599 134.34C47.2699 134.49 47.2999 134.77 47.1199 134.96L43.6599 138.74C43.4899 138.93 43.1899 138.94 42.9999 138.77C42.9999 138.77 42.1999 138.03 41.3699 137.73C40.5399 137.44 39.7599 137.29 39.0199 137.29C38.5899 137.29 38.1399 137.34 37.6799 137.44C37.2199 137.54 36.7899 137.7 36.3799 137.92C35.9699 138.14 35.6399 138.42 35.3899 138.78C35.1299 139.14 35.0099 139.57 35.0099 140.08C35.0099 140.9 35.3199 141.52 35.9299 141.95C36.5399 142.38 37.3099 142.75 38.2399 143.06C39.1699 143.37 40.1699 143.67 41.2399 143.98C42.3099 144.29 43.3099 144.72 44.2399 145.28C45.1699 145.84 45.9399 146.59 46.5499 147.54C47.1599 148.48 47.4699 149.75 47.4699 151.33C47.4699 152.91 47.1899 154.15 46.6299 155.27M75.9799 151.86C75.1499 153.53 74.0299 154.93 72.6299 156.07C71.2299 157.2 69.6099 158.07 67.7699 158.65C65.9299 159.24 62.4599 159.49 62.4599 159.49C62.1999 159.51 61.7799 159.53 61.5199 159.53H52.7099C52.4499 159.53 52.2399 159.32 52.2399 159.06V132.91C52.2399 132.65 52.4499 132.44 52.7099 132.44H60.7199C60.9799 132.44 61.4099 132.45 61.6599 132.47C61.6599 132.47 65.4199 132.68 67.3699 133.17C69.3199 133.66 71.0299 134.44 72.4799 135.52C73.9299 136.6 75.0899 138.01 75.9399 139.75C76.7899 141.49 77.2199 143.59 77.2199 146.06C77.2199 148.25 76.7999 150.19 75.9799 151.86ZM77.8099 112.15H91.9999V126.34H77.8099V112.15ZM106.11 157.15C106.11 157.41 105.92 157.71 105.68 157.81C105.68 157.81 102.52 159.2 100.6 159.61C98.6899 160.02 96.7299 160.22 94.7499 160.22C92.6299 160.22 90.6799 159.89 88.8999 159.22C87.1099 158.56 85.5699 157.61 84.2699 156.37C82.9699 155.13 81.9599 153.63 81.2299 151.87C80.4999 150.11 80.1399 148.14 80.1399 145.98C80.1399 143.82 80.4999 141.85 81.2299 140.09C81.9599 138.33 82.9699 136.83 84.2699 135.59C85.5699 134.35 87.1199 133.4 88.8999 132.74C90.6899 132.08 92.6399 131.75 94.7499 131.75C96.8599 131.75 98.9099 132.01 100.74 132.53C102.56 133.05 105.16 134.95 105.16 134.95C105.37 135.1 105.4 135.39 105.22 135.58L101.65 139.48C101.47 139.67 101.17 139.69 100.97 139.52C100.97 139.52 99.5899 138.35 98.5699 137.91C97.5499 137.48 96.2699 137.26 94.7399 137.26C93.4599 137.26 92.3099 137.48 91.2799 137.91C90.2499 138.35 89.3599 138.95 88.6199 139.73C87.8799 140.51 87.3099 141.43 86.9199 142.5C86.5199 143.57 86.3299 144.73 86.3299 145.98C86.3299 147.23 86.5299 148.42 86.9199 149.48C87.3199 150.54 87.8799 151.46 88.6199 152.23C89.3599 153.01 90.2499 153.61 91.2799 154.05C92.3099 154.48 93.4699 154.7 94.7399 154.7C96.0099 154.7 97.1599 154.55 98.1099 154.26C99.0499 153.97 99.9399 153.56 99.9399 153.56C100.18 153.45 100.37 153.15 100.37 152.89V149.44C100.37 149.18 100.16 148.97 99.8999 148.97H95.9899C95.7299 148.97 95.5199 148.76 95.5199 148.5V143.93C95.5199 143.67 95.7299 143.46 95.9899 143.46H105.64C105.9 143.46 106.11 143.67 106.11 143.93V157.14V157.15ZM108.57 126.34H94.3799V112.15H108.57V126.34ZM108.57 109.78H94.3799V95.59H108.57V109.78ZM108.57 93.22H94.3799V79.03H108.57V93.22ZM124.34 156.84C123.82 157.62 123.15 158.24 122.33 158.71C121.51 159.18 120.59 159.51 119.58 159.7C118.56 159.89 117.55 159.99 116.56 159.99C115.26 159.99 113.94 159.81 112.62 159.44C111.29 159.07 109.62 157.76 109.62 157.76C109.41 157.6 109.39 157.31 109.56 157.12L112.41 153.96C112.58 153.77 112.87 153.76 113.05 153.96C113.05 153.96 113.85 154.79 114.5 155.13C115.15 155.47 115.91 155.65 116.78 155.65C117.44 155.65 118.04 155.55 118.58 155.36C119.12 155.17 119.38 154.82 119.38 154.31C119.38 153.83 119.14 153.46 118.67 153.22C118.2 152.98 117.6 152.77 116.87 152.61C116.14 152.44 115.37 152.26 114.54 152.07C113.71 151.88 112.93 151.59 112.21 151.21C111.48 150.83 110.88 150.29 110.41 149.58C109.94 148.88 109.7 147.94 109.7 146.77C109.7 145.67 109.92 144.73 110.37 143.94C110.82 143.15 111.4 142.5 112.13 141.99C112.86 141.48 113.69 141.1 114.64 140.86C115.58 140.62 116.54 140.5 117.51 140.5C118.74 140.5 119.97 140.68 121.22 141.04C122.47 141.4 124.03 142.66 124.03 142.66C124.23 142.82 124.25 143.11 124.06 143.29L121.21 146.11C121.03 146.29 120.71 146.31 120.51 146.15C120.51 146.15 118.93 144.88 117.55 144.88C117.06 144.88 116.59 144.99 116.13 145.22C115.67 145.45 115.44 145.84 115.44 146.41C115.44 146.87 115.68 147.21 116.15 147.42C116.62 147.64 117.22 147.83 117.95 147.99C118.68 148.16 119.45 148.33 120.28 148.52C121.11 148.71 121.89 149.01 122.61 149.42C123.34 149.83 123.94 150.38 124.41 151.08C124.88 151.78 125.12 152.72 125.12 153.89C125.12 155.06 124.86 156.08 124.33 156.86M111.85 115.28C111.33 114.76 111.33 113.92 111.85 113.41C112.37 112.89 113.21 112.89 113.72 113.41C113.96 113.65 114.08 113.95 114.1 114.26C116.43 112.54 119.62 112.54 121.95 114.26C121.97 113.95 122.1 113.65 122.33 113.41C122.85 112.89 123.69 112.89 124.2 113.41C124.72 113.93 124.72 114.77 124.2 115.28C123.96 115.52 123.66 115.64 123.35 115.66C125.26 118.25 125.04 121.92 122.7 124.27C120.11 126.86 115.92 126.86 113.33 124.27C110.98 121.92 110.77 118.25 112.68 115.66C112.37 115.64 112.07 115.51 111.83 115.28M125.13 109.78H110.94V95.59H125.13V109.78ZM125.13 93.22H110.94V79.03H125.13V93.22Z"
                                    fill="white" />
                                <path
                                    d="M68.2699 139.87C67.4299 139.23 66.44 138.76 65.3 138.44C64.17 138.12 62.1899 137.99 62.1899 137.99C61.9299 137.97 61.51 137.96 61.25 137.96H58.6699C58.4099 137.96 58.2 138.17 58.2 138.43V153.56C58.2 153.82 58.4099 154.03 58.6699 154.03H60.82C61.08 154.03 61.4999 154.02 61.7599 154.01C61.7599 154.01 63.9499 153.89 65.1299 153.61C66.3199 153.33 67.3399 152.86 68.2099 152.21C69.0799 151.56 69.76 150.7 70.26 149.65C70.76 148.59 71.01 147.3 71.01 145.77C71.01 144.44 70.76 143.29 70.26 142.31C69.76 141.33 69.09 140.52 68.25 139.88"
                                    fill="white" />
                                <path d="M108.56 112.15H94.37V126.34H108.56V112.15Z" fill="#00397D" />
                                <path d="M92.0001 112.15H77.8101V126.34H92.0001V112.15Z" fill="#004C88" />
                                <path d="M42.32 79.13H28.13V93.32H42.32V79.13Z" fill="#E5001E" />
                                <path d="M125.12 79.03H110.93V93.22H125.12V79.03Z" fill="#00A6D9" />
                                <path d="M108.56 95.59H94.37V109.78H108.56V95.59Z" fill="#F5A200" />
                                <path d="M125.12 95.59H110.93V109.78H125.12V95.59Z" fill="#D39200" />
                                <path d="M42.32 112.15H28.13V126.34H42.32V112.15Z" fill="#427935" />
                                <path d="M58.8799 112.15H44.6899V126.34H58.8799V112.15Z" fill="#0075BA" />
                                <path d="M75.44 112.15H61.25V126.34H75.44V112.15Z" fill="#28A838" />
                                <path d="M42.32 95.69H28.13V109.88H42.32V95.69Z" fill="#FABD00" />
                                <path d="M58.8799 95.59H44.6899V109.78H58.8799V95.59Z" fill="#970B31" />
                                <path d="M75.44 95.59H61.25V109.78H75.44V95.59Z" fill="#ED6A02" />
                                <path d="M92.0001 95.59H77.8101V109.78H92.0001V95.59Z" fill="#DC007A" />
                                <path d="M58.8799 79.13H44.6899V93.32H58.8799V79.13Z" fill="#D7A600" />
                                <path d="M75.44 79.03H61.25V93.22H75.44V79.03Z" fill="#00973B" />
                                <path d="M92.0001 79.03H77.8101V93.22H92.0001V79.03Z" fill="#C60F28" />
                                <path d="M108.56 79.03H94.37V93.22H108.56V79.03Z" fill="#E83819" />
                                <path
                                    d="M105.21 41.84C105.21 47.46 109.78 52.03 115.4 52.03C121.02 52.03 125.59 47.46 125.59 41.84C125.59 36.22 121.02 31.65 115.4 31.65C109.78 31.65 105.21 36.22 105.21 41.84Z"
                                    fill="#E8380D" />
                                <path
                                    d="M27.9399 41.84C27.9399 47.46 32.5099 52.03 38.1399 52.03C43.7699 52.03 48.3199 47.46 48.3199 41.84C48.3199 36.22 43.7499 31.65 38.1399 31.65C32.5299 31.65 27.9399 36.22 27.9399 41.84Z"
                                    fill="#E8380D" />
                            </g>
                            <defs>
                                <clipPath id="clip0_24_2">
                                    <rect width="153.11" height="232.22" fill="white" />
                                </clipPath>
                            </defs>
                        </svg>